<?xml version="1.0" encoding="UTF-8"?>
<!DOCTYPE svg PUBLIC "-//W3C//DTD SVG 1.1//EN" "http://www.w3.org/Graphics/SVG/1.1/DTD/svg11.dtd">
<!-- Creator: CorelDRAW 2020 (64-Bit) -->
<svg xmlns="http://www.w3.org/2000/svg" xml:space="preserve" width="256.612mm" height="67.8233mm" version="1.1" style="shape-rendering:geometricPrecision; text-rendering:geometricPrecision; image-rendering:optimizeQuality; fill-rule:evenodd; clip-rule:evenodd"
viewBox="0 0 10448 2761.44"
 xmlns:xlink="http://www.w3.org/1999/xlink"
 xmlns:xodm="http://www.corel.com/coreldraw/odm/2003">
 <defs>
  <style type="text/css">
   <![CDATA[
    .fil0 {fill:#006499;fill-rule:nonzero}
    .fil1 {fill:#4D4D4D;fill-rule:nonzero}
    .fil2 {fill:#FF6633;fill-rule:nonzero}
   ]]>
  </style>
 </defs>
 <g id="Layer_x0020_1">
  <metadata id="CorelCorpID_0Corel-Layer"/>
  <polygon class="fil0" points="5695.94,2079.22 5162.56,2079.22 4755.37,1468.43 4755.37,2079.22 4279.35,2079.22 4279.35,71.91 4755.37,71.91 4755.37,1244.75 5125.29,645.43 5675.86,645.43 5194.11,1362.33 "/>
  <path class="fil0" d="M3066.35 1537.25c47.8,116.62 154.85,174.92 321.17,174.92 103.23,0 190.22,-33.46 260.95,-100.37l344.11 240.88c-141.46,177.79 -346.98,266.69 -616.53,266.69 -242.79,0 -437.31,-71.21 -583.56,-213.64 -146.24,-142.43 -219.37,-322.61 -219.37,-540.54 0,-216.03 71.69,-396.68 215.07,-541.98 143.38,-145.29 325.95,-217.94 547.71,-217.94 214.12,0 390.95,71.69 530.51,215.07 139.56,143.38 209.33,323.08 209.33,539.11 0,63.08 -6.69,122.35 -20.07,177.79l-989.32 0zm-5.73 -329.77l550.58 0c-38.24,-133.82 -128.09,-200.73 -269.55,-200.73 -147.2,0 -240.88,66.91 -281.02,200.73z"/>
  <path class="fil1" d="M7025.93 659.73l246.86 0 0 1418.77 -246.86 0 0 -244.03c-122.96,187.28 -301.73,280.91 -536.3,280.91 -198.63,0 -367.94,-72.36 -507.92,-217.07 -139.98,-144.71 -209.98,-321.11 -209.98,-529.2 0,-208.09 69.99,-384.49 209.98,-529.2 139.99,-144.71 309.29,-217.07 507.92,-217.07 234.57,0 413.33,93.64 536.3,280.91l0 -244.03zm-505.08 1217.3c143.77,0 263.89,-48.71 360.37,-146.13 96.48,-97.42 144.72,-218.02 144.72,-361.79 0,-143.77 -48.24,-264.36 -144.72,-361.79 -96.47,-97.42 -216.6,-146.13 -360.37,-146.13 -141.88,0 -261.05,48.71 -357.53,146.13 -96.48,97.42 -144.72,218.02 -144.72,361.79 0,143.77 48.24,264.36 144.72,361.79 96.47,97.42 215.65,146.13 357.53,146.13zm2301.25 -1784.81l246.86 0 0 1986.28 -246.86 0 0 -244.03c-122.96,187.28 -301.73,280.91 -536.3,280.91 -198.63,0 -367.94,-72.36 -507.92,-217.07 -139.98,-144.71 -209.98,-321.11 -209.98,-529.2 0,-208.09 69.99,-384.49 209.98,-529.2 139.99,-144.71 309.29,-217.07 507.92,-217.07 234.57,0 413.33,93.64 536.3,280.91l0 -811.54zm-505.08 1784.81c143.77,0 263.89,-48.71 360.37,-146.13 96.48,-97.42 144.72,-218.02 144.72,-361.79 0,-143.77 -48.24,-264.36 -144.72,-361.79 -96.47,-97.42 -216.6,-146.13 -360.37,-146.13 -141.88,0 -261.05,48.71 -357.53,146.13 -96.48,97.42 -144.72,218.02 -144.72,361.79 0,143.77 48.24,264.36 144.72,361.79 96.47,97.42 215.65,146.13 357.53,146.13zm1336.48 -838.49c0,53.92 27.9,96.48 83.71,129.11 55.8,32.16 122.01,59.59 199.1,82.29 77.09,22.7 154.65,45.4 232.68,68.58 78.03,22.7 143.77,65.73 198.16,128.63 53.91,62.9 80.87,143.77 80.87,242.61 0,128.64 -49.66,231.73 -148.97,309.29 -99.31,77.56 -226.53,116.34 -381.65,116.34 -138.09,0 -256.32,-30.27 -354.69,-90.8 -98.37,-60.53 -168.36,-140.93 -209.98,-241.19l212.82 -122.02c22.7,68.1 65.26,122.02 127.69,161.74 62.43,39.73 137.15,59.59 224.17,59.59 81.34,0 148.5,-15.61 201.47,-46.82 52.97,-31.21 79.45,-79.92 79.45,-145.66 0,-54.86 -27.43,-98.84 -82.29,-131.95 -54.86,-33.11 -121.07,-61.01 -198.16,-84.18 -77.09,-23.17 -154.64,-46.35 -232.68,-69.99 -78.03,-23.17 -144.24,-65.26 -199.1,-125.8 -54.86,-60.53 -82.29,-138.09 -82.29,-232.68 0,-122.96 47.77,-224.17 143.3,-303.62 95.53,-79.45 215.18,-119.18 358.95,-119.18 115.39,0 218.02,26.01 307.87,78.03 89.85,52.02 157.48,124.38 202.88,217.07l-207.14 116.34c-51.07,-121.07 -152.28,-181.6 -303.61,-181.6 -69.99,0 -129.58,16.08 -178.77,48.71 -49.18,32.16 -73.78,78.03 -73.78,137.15z"/>
  <path id="path999" class="fil2" d="M2590.06 1961.41c33.53,19.56 44.71,61.47 25.15,95 -19.56,33.53 -61.47,44.71 -95,25.15 -33.52,-19.55 -44.71,-61.47 -25.15,-95 18.63,-33.53 61.47,-44.71 95,-25.15z"/>
  <path id="path999_0" class="fil2" d="M2404.72 2234.3c29.8,29.8 29.8,78.23 0,108.04 -29.8,29.8 -78.23,29.8 -108.04,0 -29.8,-29.8 -29.8,-78.23 0,-108.04 29.81,-29.8 78.24,-29.8 108.04,0z"/>
  <path id="path999_1" class="fil2" d="M1878.52 2136.5c24.21,-13.97 54.95,-5.59 68.92,18.63 13.97,24.22 5.59,54.95 -18.63,68.92 -24.21,13.97 -54.95,5.59 -68.91,-18.63 -13.97,-24.22 -5.59,-54.95 18.63,-68.92z"/>
  <path id="path999_2" class="fil2" d="M2043.37 2421.49c39.12,-22.35 89.41,-9.31 112.69,29.81 22.35,39.12 9.32,89.41 -29.8,112.69 -39.12,22.36 -89.41,9.32 -112.69,-29.8 -23.29,-39.12 -9.32,-89.41 29.8,-112.7z"/>
  <path id="path999_3" class="fil2" d="M1666.17 2217.53c30.73,-8.39 61.47,10.24 69.85,40.04 8.38,30.73 -10.24,61.47 -40.05,69.86 -30.74,8.38 -61.47,-10.24 -69.85,-40.05 -8.38,-29.81 9.32,-61.47 40.05,-69.85z"/>
  <path id="path999_4" class="fil2" d="M1751.85 2536.05c47.5,-13.04 95.93,15.83 108.97,62.4 13.04,47.5 -15.83,95.93 -62.4,108.97 -47.5,13.04 -95.92,-15.83 -108.97,-62.4 -13.04,-47.5 14.9,-95.93 62.4,-108.97z"/>
  <path id="path999_5" class="fil2" d="M1505.05 2305.07c0,35.39 -27.94,63.34 -63.33,63.34 -35.39,0 -63.33,-27.94 -63.33,-63.34 0,-35.39 27.94,-63.33 63.33,-63.33 34.46,0 63.33,27.94 63.33,63.33z"/>
  <path id="path999_6" class="fil2" d="M1441.72 2571.44c52.16,0 95,42.84 95,95 0,52.16 -42.84,95 -95,95 -52.16,0 -95,-41.91 -95,-95 0,-52.15 41.91,-95 95,-95z"/>
  <path id="path999_7" class="fil2" d="M1183.73 2340.47c-37.25,-10.24 -59.6,-48.43 -49.36,-85.69 10.24,-37.26 48.43,-59.6 85.69,-49.36 37.25,10.24 58.67,48.43 49.36,85.69 -10.24,38.19 -48.43,59.61 -85.69,49.36l0 0z"/>
  <path id="path999_8" class="fil2" d="M1134.37 2524.88c54.02,14.9 86.62,69.85 71.72,123.87 -14.9,54.02 -69.85,86.61 -123.87,71.71 -54.02,-14.9 -86.62,-69.85 -71.72,-123.87 13.97,-54.02 69.85,-86.61 123.87,-71.71z"/>
  <path id="path999_9" class="fil2" d="M912.72 2143.96c21.42,-36.32 67.05,-49.36 104.31,-27.94 36.32,21.42 49.36,67.06 27.94,104.31 -21.42,36.32 -67.06,49.36 -104.31,27.94 -36.33,-21.42 -49.36,-67.99 -27.94,-104.31z"/>
  <path id="path999_10" class="fil2" d="M851.25 2401.01c51.22,29.8 68.91,95.92 39.12,147.15 -29.8,51.22 -95.93,68.92 -147.15,39.12 -51.22,-29.8 -68.91,-95.93 -39.12,-147.15 29.8,-51.22 95.93,-68.92 147.16,-39.12z"/>
  <path id="path999_11" class="fil2" d="M728.31 2092.73c-32.6,-32.59 -32.6,-84.75 0,-116.42 32.59,-32.59 84.75,-32.59 116.42,0 32.6,32.6 32.6,84.75 0,116.42 -31.67,32.6 -83.82,32.6 -116.42,0z"/>
  <path id="path999_12" class="fil2" d="M611.89 2209.15c44.7,44.71 44.7,116.42 0,161.13 -44.71,44.7 -116.42,44.7 -161.13,0 -44.7,-44.71 -44.7,-116.42 0,-161.13 43.78,-43.77 116.42,-43.77 161.13,0z"/>
  <path id="path999_13" class="fil2" d="M561.6 1887.84c-24.21,-42.84 -10.24,-96.86 32.59,-121.07 42.84,-24.21 96.86,-10.24 121.08,32.6 24.21,42.84 10.24,96.86 -32.6,121.07 -41.91,24.22 -95.93,9.32 -121.07,-32.59z"/>
  <path id="path999_14" class="fil2" d="M262.64 1913.91c60.54,-35.39 137.84,-13.97 173.23,46.57 35.4,60.54 13.97,137.84 -46.56,173.23 -60.54,35.4 -137.84,13.97 -173.23,-46.56 -34.46,-60.54 -13.97,-137.84 46.57,-173.24z"/>
  <path id="path999_15" class="fil2" d="M570.91 1711.81c-50.3,13.97 -102.44,-16.77 -116.42,-67.05 -13.97,-50.29 16.77,-102.45 67.06,-116.42 50.29,-13.97 102.44,16.77 116.42,67.06 13.97,50.3 -15.83,102.45 -67.06,116.42z"/>
  <path id="path999_16" class="fil2" d="M161.12 1578.63c74.51,-20.49 150.88,24.22 171.37,98.72 20.49,74.51 -24.21,150.88 -98.73,171.37 -74.5,20.49 -150.87,-24.21 -171.36,-98.72l0 -0.93c-19.56,-73.58 25.15,-149.95 98.72,-170.44l0 0z"/>
  <path id="path999_17" class="fil2" d="M405.13 1381.18c0,-60.53 48.43,-108.96 108.97,-108.96 60.54,0 108.97,48.43 108.97,108.96 0,60.54 -48.43,108.97 -108.97,108.97 -59.6,0 -108.97,-48.43 -108.97,-108.97z"/>
  <path id="path999_18" class="fil2" d="M152.74 1228.45c83.82,0 152.74,67.99 152.74,152.74 0,83.82 -67.99,152.74 -152.74,152.74 -83.82,0 -151.81,-67.99 -152.74,-151.81 0.93,-84.75 68.92,-153.67 152.74,-153.67l0 -0z"/>
  <path id="path999_19" class="fil2" d="M2591.93 798.16c-33.53,19.56 -76.37,7.45 -95,-25.15 -19.56,-33.53 -7.45,-76.37 25.15,-95 33.53,-19.56 76.37,-7.45 95,25.15 19.56,32.59 8.38,75.44 -25.15,95z"/>
  <path id="path999_20" class="fil2" d="M2297.62 527.14c-29.81,-29.8 -29.81,-78.23 0,-108.04 29.8,-29.8 78.23,-29.8 108.03,0 29.8,29.81 29.8,78.23 0,108.04 -30.73,29.8 -79.17,29.8 -108.03,0z"/>
  <path id="path999_21" class="fil2" d="M2043.37 339.95c-39.12,-22.36 -53.09,-73.58 -30.73,-112.7 22.35,-39.12 73.57,-53.09 112.69,-30.73 39.12,22.35 53.08,73.57 30.73,112.69 -23.28,40.05 -73.58,53.08 -112.69,30.74z"/>
  <path id="path999_22" class="fil2" d="M1736.02 502.93c-8.38,30.74 -39.12,48.43 -69.85,40.05 -30.74,-8.38 -48.43,-39.12 -40.04,-69.85 8.38,-30.74 39.12,-48.43 69.85,-40.05 29.81,8.38 48.43,40.05 40.05,69.85z"/>
  <path id="path999_23" class="fil2" d="M1751.85 225.39c-47.5,-13.04 -75.44,-61.47 -62.4,-108.97 13.04,-47.49 61.47,-75.44 108.97,-62.4 47.5,13.04 75.44,61.47 62.4,108.97 -13.04,46.57 -62.4,74.51 -108.97,62.4z"/>
  <path id="path999_24" class="fil2" d="M1441.72 393.03c35.39,0 63.33,27.94 63.33,63.33 0,35.39 -27.94,63.33 -63.33,63.33 -35.39,0 -63.33,-27.94 -63.33,-63.33 0,-34.46 27.94,-63.33 63.33,-63.33z"/>
  <path id="path999_25" class="fil2" d="M1441.72 190c-52.16,0 -95,-42.84 -95,-95 0,-52.16 42.84,-95 95,-95 52.16,0 95,42.84 95,95 0,53.08 -42.84,95 -95,95z"/>
  <path id="path999_26" class="fil2" d="M1220.06 555.09c-37.25,10.24 -75.44,-12.11 -85.69,-49.36 -10.24,-37.25 12.11,-75.44 49.36,-85.69 37.25,-10.24 75.44,12.11 85.69,49.36 9.31,37.25 -12.11,75.44 -49.36,85.69z"/>
  <path id="path999_27" class="fil2" d="M1134.37 236.57c-54.02,14.9 -109.89,-17.7 -123.87,-71.72 -14.9,-54.02 17.69,-109.9 71.72,-123.87 54.02,-13.97 109.9,17.7 123.87,71.71 14.9,54.02 -17.69,109.9 -71.72,123.88z"/>
  <path id="path999_28" class="fil2" d="M1044.04 542.05c21.42,36.32 8.38,82.89 -27.94,104.31 -36.32,21.42 -82.89,8.38 -104.31,-27.94 -21.42,-36.33 -8.38,-82.89 27.94,-104.31 37.25,-21.42 83.82,-8.38 104.31,27.95z"/>
  <path id="path999_29" class="fil2" d="M851.25 360.44c-51.23,29.8 -117.35,12.11 -147.16,-39.12 -29.8,-51.23 -12.1,-117.35 39.12,-147.15 51.22,-29.8 117.35,-12.1 147.15,39.12 30.74,51.22 13.04,117.35 -39.12,147.15 0.93,0 0,0 0,0z"/>
  <path id="path999_30" class="fil2" d="M728.31 668.71c32.59,-32.6 84.75,-32.6 116.42,0 32.6,32.6 32.6,84.75 0,116.42 -32.59,32.6 -84.75,32.6 -116.42,0 -32.6,-32.6 -32.6,-84.75 0,-116.42z"/>
  <path id="path999_31" class="fil2" d="M449.84 552.29c-44.71,-44.71 -44.71,-116.42 0,-161.13 44.71,-44.7 116.42,-44.7 161.12,0 44.71,44.71 44.71,116.42 0,161.13 -43.77,44.7 -116.42,44.7 -161.12,0z"/>
  <path id="path999_32" class="fil2" d="M716.2 962.08c-24.22,42.84 -78.23,56.81 -121.07,32.6 -42.84,-24.22 -56.81,-78.23 -32.6,-121.08 24.22,-42.84 78.23,-56.81 121.07,-32.59 41.91,24.21 56.81,78.23 32.6,121.07z"/>
  <path id="path999_33" class="fil2" d="M435.86 800.96c-35.39,60.54 -112.69,81.96 -173.23,46.57 -60.54,-35.39 -81.96,-112.7 -46.57,-173.23 35.39,-60.54 112.69,-81.96 173.23,-46.57 60.54,35.39 81.96,112.69 46.56,173.23z"/>
  <path id="path999_34" class="fil2" d="M521.55 1233.1c-50.3,-13.97 -81.03,-66.13 -67.06,-116.42 13.97,-50.3 66.12,-81.03 116.42,-67.06 50.3,13.97 81.03,66.12 67.06,116.42 -13.04,50.29 -65.2,80.09 -116.42,67.05z"/>
  <path id="path999_35" class="fil2" d="M332.49 1084.09c-19.56,74.51 -95.93,119.21 -171.37,98.72 -74.51,-19.56 -119.21,-95.93 -98.72,-171.37 19.56,-74.51 95.92,-119.21 171.36,-98.72 73.58,20.49 118.29,96.85 98.73,171.36z"/>
  <path class="fil0" d="M1893.5 645.43c158.68,0 317.35,0 476.02,0 0,477.94 0,955.87 0,1433.8 -158.67,0 -317.35,0 -476.02,0 0,-43.97 0,-87.94 0,-131.91 -97.5,114.7 -233.23,172.06 -407.2,172.06 -191.17,0 -351.28,-72.17 -480.32,-216.5 -129.04,-144.34 -193.56,-324.52 -193.56,-540.54 0,-216.03 64.52,-396.21 193.56,-540.54 129.04,-144.34 289.15,-216.5 480.32,-216.5 173.97,0 309.7,57.35 407.2,172.05 0,-43.97 0,-87.94 0,-131.91zm-30.26 1054.41l0 -669.59c0,-37.8 -12.48,-65.35 -37.83,-82.93 -24.97,-17.29 -57.34,-26.08 -97.13,-26.08 -67.09,0 -138.86,12.02 -215.31,36.34 -76.45,24.61 -161.87,64.47 -255.49,119.85l28.48 28.43c13.65,-7.92 27.69,-15.24 41.34,-21.39 12.09,-5.86 25.36,-11.14 39.79,-15.53 14.43,-4.69 29.26,-7.03 44.86,-7.03 16.38,0 30.43,2.05 40.96,6.15 10.53,4.1 19.11,9.09 24.96,14.95 6.24,6.15 10.53,12.89 12.87,20.81 2.34,7.62 3.12,15.24 3.12,22.56l0 573.47c0,44.25 15.21,76.19 44.86,96.12 29.64,20.22 76.45,30.18 140.42,30.18 63.19,0 109.61,-9.96 139.64,-30.18 29.64,-19.93 44.47,-51.87 44.47,-96.12z"/>
 </g>
</svg>
